<svg width="20" height="20" viewBox="0 0 20 20" fill="none" xmlns="http://www.w3.org/2000/svg">
<path fill-rule="evenodd" clip-rule="evenodd" d="M17.1083 3.77501C17.2187 3.65654 17.2788 3.49983 17.276 3.33791C17.2731 3.17599 17.2075 3.02151 17.093 2.907C16.9785 2.79249 16.824 2.72689 16.6621 2.72404C16.5002 2.72118 16.3435 2.78128 16.225 2.89168L2.89167 16.225C2.83027 16.2822 2.78102 16.3512 2.74686 16.4279C2.7127 16.5046 2.69433 16.5873 2.69285 16.6712C2.69137 16.7552 2.7068 16.8385 2.73824 16.9163C2.76967 16.9942 2.81646 17.0649 2.87581 17.1242C2.93516 17.1836 3.00585 17.2303 3.08367 17.2618C3.1615 17.2932 3.24486 17.3087 3.32877 17.3072C3.41269 17.3057 3.49545 17.2873 3.57212 17.2532C3.64879 17.219 3.71779 17.1698 3.77501 17.1083L6.14751 14.7358C7.28667 15.2725 8.59751 15.625 10 15.625C12.2367 15.625 14.2417 14.7275 15.6833 13.6208C16.4058 13.0667 17.0025 12.4483 17.4242 11.8408C17.8342 11.25 18.125 10.6025 18.125 10C18.125 9.39751 17.8333 8.75001 17.4242 8.15918C17.0025 7.55168 16.4058 6.93418 15.6842 6.37918C15.4653 6.21085 15.2342 6.0489 14.9908 5.89335L17.1083 3.77501ZM14.0833 6.80085L12.6075 8.27668C13.0054 8.87762 13.1833 9.59763 13.1112 10.3147C13.039 11.0318 12.7212 11.702 12.2116 12.2116C11.702 12.7212 11.0318 13.039 10.3147 13.1112C9.59762 13.1833 8.87761 13.0054 8.27667 12.6075L7.09584 13.7875C8.0171 14.1683 9.00317 14.3678 10 14.375C11.9058 14.375 13.65 13.6058 14.9225 12.6292C15.5575 12.1417 16.0592 11.6142 16.3975 11.1283C16.7467 10.625 16.875 10.2308 16.875 10C16.875 9.76918 16.7467 9.37501 16.3975 8.87168C16.0592 8.38585 15.5575 7.85835 14.9225 7.37085C14.6614 7.17029 14.3822 6.98029 14.0833 6.80085ZM9.19084 11.6925C9.54072 11.8596 9.93381 11.9141 10.316 11.8486C10.6981 11.783 11.0505 11.6006 11.3247 11.3264C11.5989 11.0522 11.7813 10.6998 11.8469 10.3176C11.9125 9.93548 11.8579 9.5424 11.6908 9.19251L9.19084 11.6925Z" fill="black"/>
<path d="M10 4.375C10.86 4.375 11.6867 4.50833 12.4592 4.73417C12.493 4.74426 12.5236 4.76302 12.5479 4.78858C12.5723 4.81414 12.5895 4.84562 12.5979 4.8799C12.6063 4.91417 12.6057 4.95005 12.5959 4.98399C12.5862 5.01792 12.5678 5.04872 12.5425 5.07333L11.8558 5.76083C11.8305 5.7864 11.799 5.80497 11.7644 5.81476C11.7298 5.82454 11.6933 5.8252 11.6583 5.81667C11.1144 5.69127 10.5582 5.62698 10 5.625C8.09417 5.625 6.35 6.39417 5.0775 7.37083C4.4425 7.85833 3.94083 8.38583 3.6025 8.87167C3.25333 9.375 3.125 9.76917 3.125 10C3.125 10.2308 3.25333 10.625 3.6025 11.1283C3.8975 11.5533 4.3175 12.0092 4.8425 12.4425C4.93917 12.5217 4.94833 12.6675 4.85917 12.7567L4.26917 13.3475C4.23303 13.3842 4.18443 13.4059 4.13302 13.4083C4.08161 13.4108 4.03115 13.3939 3.99167 13.3608C3.45501 12.9186 2.97897 12.4075 2.57583 11.8408C2.16667 11.25 1.875 10.6025 1.875 10C1.875 9.3975 2.16667 8.75 2.57583 8.15917C2.9975 7.55167 3.59417 6.93417 4.31583 6.37917C5.75833 5.2725 7.76333 4.375 10 4.375Z" fill="black"/>
<path d="M10 6.875C10.0989 6.875 10.1964 6.87944 10.2925 6.88833C10.4567 6.90417 10.5159 7.1 10.4 7.21667L9.38919 8.22667C9.12014 8.31994 8.87575 8.47302 8.67439 8.67437C8.47304 8.87573 8.31996 9.12012 8.22669 9.38917L7.21669 10.4C7.10002 10.5167 6.90419 10.4567 6.88835 10.2925C6.84763 9.85933 6.89781 9.42244 7.03567 9.00978C7.17353 8.59713 7.39604 8.21781 7.68895 7.8961C7.98187 7.5744 8.33873 7.31741 8.73669 7.14157C9.13465 6.96574 9.56494 6.87495 10 6.875Z" fill="black"/>
</svg>
